# xmcd CD database file
#
# Track frame offsets:
#	183
#	15548
#	27190
#	39283
#	59883
#	71463
#	82495
#	97193
#	111400
#	125875
#	139393
#	148930
#	156708
#	172755
#	185468
#	200998
#
# Disc length: 2976 seconds
#
# Revision: 3
# Processed by: cddbd v1.5.2PL0 Copyright (c) Steve Scherf et al.
# Submitted via: CDex 1.82
#
DISCID=040b9e10
DTITLE=Vojta Zicha - Hrichy Vojty Zichy
DYEAR=1993
DGENRE=Country
TTITLE0=Cesty
TTITLE1=Neber to tak vazne
TTITLE2=Co ja rad
TTITLE3=Trhanec
TTITLE4=Dneska chvili dyl
TTITLE5=Nesplnena prani
TTITLE6=Lod plna touhy
TTITLE7=Mstim se ti laskou
TTITLE8=Ze se jednou vratis
TTITLE9=Podzim
TTITLE10=San Francisko
TTITLE11=Mazanec
TTITLE12=Vzdalujes se
TTITLE13=Okurkova sezona
TTITLE14=Kridla
TTITLE15=Jedenkrat
EXTD=YEAR: 1993
EXTT0=
EXTT1=
EXTT2=
EXTT3=
EXTT4=
EXTT5=
EXTT6=
EXTT7=
EXTT8=
EXTT9=
EXTT10=
EXTT11=
EXTT12=
EXTT13=
EXTT14=
EXTT15=
PLAYORDER=
